<?xml version="1.0" standalone="no"?><svg xmlns:xlink="http://www.w3.org/1999/xlink" xmlns="http://www.w3.org/2000/svg" viewBox="0 0 1000 923.077237471173" preserveAspectRatio="xMaxYMax slice"><g transform="scale(1.021781312232868)"><rect x="0" y="0" width="978.6833333333335" height="903.4000000000001" fill="#18181A"/><circle cx="18.825" cy="18.825" r="3.765" fill="#ffdbd9"/><circle cx="56.465" cy="18.825" r="3.765" fill="#fff7cb"/><circle cx="94.105" cy="18.825" r="3.765" fill="#fff9d5"/><circle cx="131.745" cy="18.825" r="3.765" fill="#fe847e"/><circle cx="169.385" cy="18.825" r="3.765" fill="#fe948f"/><circle cx="207.035" cy="18.825" r="3.765" fill="#ffea74"/><circle cx="244.67499999999998" cy="18.825" r="3.765" fill="#fe7972"/><circle cx="282.315" cy="18.825" r="3.765" fill="#babcdb"/><circle cx="319.955" cy="18.825" r="3.765" fill="#fffadf"/><circle cx="357.59499999999997" cy="18.825" r="3.765" fill="#ffdad8"/><circle cx="395.235" cy="18.825" r="3.765" fill="#ffb7b3"/><circle cx="432.885" cy="18.825" r="3.765" fill="#ffef93"/><circle cx="470.525" cy="18.825" r="3.765" fill="#ffb8b4"/><circle cx="508.16499999999996" cy="18.825" r="3.765" fill="#6e72b5"/><circle cx="545.805" cy="18.825" r="3.765" fill="#9c9fcc"/><circle cx="583.4449999999999" cy="18.825" r="3.765" fill="#ffa9a4"/><circle cx="621.085" cy="18.825" r="3.765" fill="#8d91c5"/><circle cx="658.735" cy="18.825" r="3.765" fill="#fff5bf"/><circle cx="696.375" cy="18.825" r="3.765" fill="#fffffd"/><circle cx="734.015" cy="18.825" r="3.765" fill="#ffa5a0"/><circle cx="771.655" cy="18.825" r="3.765" fill="#43499f"/><circle cx="809.295" cy="18.825" r="3.765" fill="#d2d4e8"/><circle cx="846.935" cy="18.825" r="3.765" fill="#fffdf0"/><circle cx="884.585" cy="18.825" r="3.765" fill="#fffce9"/><circle cx="922.225" cy="18.825" r="3.765" fill="#fff4b6"/><circle cx="959.865" cy="18.825" r="3.765" fill="#ffeb7a"/><circle cx="18.825" cy="56.465" r="3.765" fill="#fff4b8"/><circle cx="56.465" cy="56.465" r="3.765" fill="#fffefc"/><circle cx="94.105" cy="56.465" r="3.765" fill="#fe746d"/><circle cx="131.745" cy="56.465" r="3.765" fill="#fff9da"/><circle cx="169.385" cy="56.465" r="3.765" fill="#ffed88"/><circle cx="207.035" cy="56.465" r="3.765" fill="#fff2a7"/><circle cx="244.67499999999998" cy="56.465" r="3.765" fill="#fff2f1"/><circle cx="282.315" cy="56.465" r="3.765" fill="#ffccca"/><circle cx="319.955" cy="56.465" r="3.765" fill="#e5e6f2"/><circle cx="357.59499999999997" cy="56.465" r="3.765" fill="#ffd5d3"/><circle cx="395.235" cy="56.465" r="3.765" fill="#fffce8"/><circle cx="432.885" cy="56.465" r="3.765" fill="#6368af"/><circle cx="470.525" cy="56.465" r="3.765" fill="#ffc4c1"/><circle cx="508.16499999999996" cy="56.465" r="3.765" fill="#fff9d8"/><circle cx="545.805" cy="56.465" r="3.765" fill="#ffcac8"/><circle cx="583.4449999999999" cy="56.465" r="3.765" fill="#ffe865"/><circle cx="621.085" cy="56.465" r="3.765" fill="#ffea75"/><circle cx="658.735" cy="56.465" r="3.765" fill="#2c3393"/><circle cx="696.375" cy="56.465" r="3.765" fill="#ffee8c"/><circle cx="734.015" cy="56.465" r="3.765" fill="#fe645c"/><circle cx="771.655" cy="56.465" r="3.765" fill="#fafafc"/><circle cx="809.295" cy="56.465" r="3.765" fill="#fffef5"/><circle cx="846.935" cy="56.465" r="3.765" fill="#fe6159"/><circle cx="884.585" cy="56.465" r="3.765" fill="#ffec81"/><circle cx="922.225" cy="56.465" r="3.765" fill="#f6f7fb"/><circle cx="959.865" cy="56.465" r="3.765" fill="#fffefa"/><circle cx="18.825" cy="94.105" r="3.765" fill="#fff1a1"/><circle cx="56.465" cy="94.105" r="3.765" fill="#fe473e"/><circle cx="94.105" cy="94.105" r="3.765" fill="#666bb1"/><circle cx="131.745" cy="94.105" r="3.765" fill="#fe9791"/><circle cx="169.385" cy="94.105" r="3.765" fill="#fe3a2f"/><circle cx="207.035" cy="94.105" r="3.765" fill="#ffa8a4"/><circle cx="244.67499999999998" cy="94.105" r="3.765" fill="#ffe864"/><circle cx="282.315" cy="94.105" r="3.765" fill="#fe6b63"/><circle cx="319.955" cy="94.105" r="3.765" fill="#ffe0df"/><circle cx="357.59499999999997" cy="94.105" r="3.765" fill="#fffdef"/><circle cx="395.235" cy="94.105" r="3.765" fill="#ffa29e"/><circle cx="432.885" cy="94.105" r="3.765" fill="#293092"/><circle cx="470.525" cy="94.105" r="3.765" fill="#fffce9"/><circle cx="508.16499999999996" cy="94.105" r="3.765" fill="#e6e7f2"/><circle cx="545.805" cy="94.105" r="3.765" fill="#fe645c"/><circle cx="583.4449999999999" cy="94.105" r="3.765" fill="#fe665e"/><circle cx="621.085" cy="94.105" r="3.765" fill="#fe827b"/><circle cx="658.735" cy="94.105" r="3.765" fill="#fff4b7"/><circle cx="696.375" cy="94.105" r="3.765" fill="#ffdddb"/><circle cx="734.015" cy="94.105" r="3.765" fill="#fe766f"/><circle cx="771.655" cy="94.105" r="3.765" fill="#ffeded"/><circle cx="809.295" cy="94.105" r="3.765" fill="#fffcea"/><circle cx="846.935" cy="94.105" r="3.765" fill="#fff09e"/><circle cx="884.585" cy="94.105" r="3.765" fill="#3a419a"/><circle cx="922.225" cy="94.105" r="3.765" fill="#ffb4b0"/><circle cx="959.865" cy="94.105" r="3.765" fill="#fffffd"/><circle cx="18.825" cy="131.745" r="3.765" fill="#fff7c7"/><circle cx="56.465" cy="131.745" r="3.765" fill="#8d91c5"/><circle cx="94.105" cy="131.745" r="3.765" fill="#cacbe4"/><circle cx="131.745" cy="131.745" r="3.765" fill="#c3c5e1"/><circle cx="169.385" cy="131.745" r="3.765" fill="#fffade"/><circle cx="207.035" cy="131.745" r="3.765" fill="#ffc0bc"/><circle cx="244.67499999999998" cy="131.745" r="3.765" fill="#ffed86"/><circle cx="282.315" cy="131.745" r="3.765" fill="#8589c1"/><circle cx="319.955" cy="131.745" r="3.765" fill="#ffe96c"/><circle cx="357.59499999999997" cy="131.745" r="3.765" fill="#fe5f57"/><circle cx="395.235" cy="131.745" r="3.765" fill="#6a6fb3"/><circle cx="432.885" cy="131.745" r="3.765" fill="#fffade"/><circle cx="470.525" cy="131.745" r="3.765" fill="#ffe9e7"/><circle cx="508.16499999999996" cy="131.745" r="3.765" fill="#fe5c53"/><circle cx="545.805" cy="131.745" r="3.765" fill="#fe837d"/><circle cx="583.4449999999999" cy="131.745" r="3.765" fill="#fff09d"/><circle cx="621.085" cy="131.745" r="3.765" fill="#f1f2f8"/><circle cx="658.735" cy="131.745" r="3.765" fill="#fff2a6"/><circle cx="696.375" cy="131.745" r="3.765" fill="#ffe868"/><circle cx="734.015" cy="131.745" r="3.765" fill="#d9dbec"/><circle cx="771.655" cy="131.745" r="3.765" fill="#fe938d"/><circle cx="809.295" cy="131.745" r="3.765" fill="#fff8cf"/><circle cx="846.935" cy="131.745" r="3.765" fill="#ffcbc8"/><circle cx="884.585" cy="131.745" r="3.765" fill="#ffea73"/><circle cx="922.225" cy="131.745" r="3.765" fill="#ffb5b1"/><circle cx="959.865" cy="131.745" r="3.765" fill="#ffd4d2"/><circle cx="18.825" cy="169.385" r="3.765" fill="#ffbcb9"/><circle cx="56.465" cy="169.385" r="3.765" fill="#fff2a8"/><circle cx="94.105" cy="169.385" r="3.765" fill="#9094c6"/><circle cx="131.745" cy="169.385" r="3.765" fill="#fe8882"/><circle cx="169.385" cy="169.385" r="3.765" fill="#676bb1"/><circle cx="207.035" cy="169.385" r="3.765" fill="#9da0cd"/><circle cx="244.67499999999998" cy="169.385" r="3.765" fill="#ffef96"/><circle cx="282.315" cy="169.385" r="3.765" fill="#ffaba7"/><circle cx="319.955" cy="169.385" r="3.765" fill="#fff7cd"/><circle cx="357.59499999999997" cy="169.385" r="3.765" fill="#fe7b74"/><circle cx="395.235" cy="169.385" r="3.765" fill="#fe7e77"/><circle cx="432.885" cy="169.385" r="3.765" fill="#293091"/><circle cx="470.525" cy="169.385" r="3.765" fill="#ffbeba"/><circle cx="508.16499999999996" cy="169.385" r="3.765" fill="#ffefee"/><circle cx="545.805" cy="169.385" r="3.765" fill="#696eb2"/><circle cx="583.4449999999999" cy="169.385" r="3.765" fill="#fe847e"/><circle cx="621.085" cy="169.385" r="3.765" fill="#ffc8c5"/><circle cx="658.735" cy="169.385" r="3.765" fill="#6b70b3"/><circle cx="696.375" cy="169.385" r="3.765" fill="#ffee8d"/><circle cx="734.015" cy="169.385" r="3.765" fill="#fe3126"/><circle cx="771.655" cy="169.385" r="3.765" fill="#fe3127"/><circle cx="809.295" cy="169.385" r="3.765" fill="#454ba0"/><circle cx="846.935" cy="169.385" r="3.765" fill="#fff9d6"/><circle cx="884.585" cy="169.385" r="3.765" fill="#393f9a"/><circle cx="922.225" cy="169.385" r="3.765" fill="#d3d4e8"/><circle cx="959.865" cy="169.385" r="3.765" fill="#cfd0e6"/><circle cx="18.825" cy="207.035" r="3.765" fill="#a6a9d2"/><circle cx="56.465" cy="207.035" r="3.765" fill="#8a8ec3"/><circle cx="94.105" cy="207.035" r="3.765" fill="#4d53a4"/><circle cx="131.745" cy="207.035" r="3.765" fill="#686db2"/><circle cx="169.385" cy="207.035" r="3.765" fill="#fe453c"/><circle cx="207.035" cy="207.035" r="3.765" fill="#b7b9da"/><circle cx="244.67499999999998" cy="207.035" r="3.765" fill="#fe7068"/><circle cx="282.315" cy="207.035" r="3.765" fill="#fe3328"/><circle cx="319.955" cy="207.035" r="3.765" fill="#ffbdb9"/><circle cx="357.59499999999997" cy="207.035" r="3.765" fill="#ffd3d1"/><circle cx="395.235" cy="207.035" r="3.765" fill="#fe948e"/><circle cx="432.885" cy="207.035" r="3.765" fill="#969ac9"/><circle cx="470.525" cy="207.035" r="3.765" fill="#ffea71"/><circle cx="508.16499999999996" cy="207.035" r="3.765" fill="#ffc6c3"/><circle cx="545.805" cy="207.035" r="3.765" fill="#fff5be"/><circle cx="583.4449999999999" cy="207.035" r="3.765" fill="#ffb5b1"/><circle cx="621.085" cy="207.035" r="3.765" fill="#fff8ce"/><circle cx="658.735" cy="207.035" r="3.765" fill="#6469b0"/><circle cx="696.375" cy="207.035" r="3.765" fill="#fe746c"/><circle cx="734.015" cy="207.035" r="3.765" fill="#fffffd"/><circle cx="771.655" cy="207.035" r="3.765" fill="#5258a7"/><circle cx="809.295" cy="207.035" r="3.765" fill="#ffcac7"/><circle cx="846.935" cy="207.035" r="3.765" fill="#fff09e"/><circle cx="884.585" cy="207.035" r="3.765" fill="#f1f1f8"/><circle cx="922.225" cy="207.035" r="3.765" fill="#fe746d"/><circle cx="959.865" cy="207.035" r="3.765" fill="#2b3192"/><circle cx="18.825" cy="244.67499999999998" r="3.765" fill="#7f83be"/><circle cx="56.465" cy="244.67499999999998" r="3.765" fill="#ffee8f"/><circle cx="94.105" cy="244.67499999999998" r="3.765" fill="#fffae0"/><circle cx="131.745" cy="244.67499999999998" r="3.765" fill="#fe544b"/><circle cx="169.385" cy="244.67499999999998" r="3.765" fill="#fe5850"/><circle cx="207.035" cy="244.67499999999998" r="3.765" fill="#ffeb7c"/><circle cx="244.67499999999998" cy="244.67499999999998" r="3.765" fill="#fe726b"/><circle cx="282.315" cy="244.67499999999998" r="3.765" fill="#b6b8da"/><circle cx="319.955" cy="244.67499999999998" r="3.765" fill="#fff3ad"/><circle cx="357.59499999999997" cy="244.67499999999998" r="3.765" fill="#fffade"/><circle cx="395.235" cy="244.67499999999998" r="3.765" fill="#ffe4e3"/><circle cx="432.885" cy="244.67499999999998" r="3.765" fill="#ffe6e5"/><circle cx="470.525" cy="244.67499999999998" r="3.765" fill="#bbbddc"/><circle cx="508.16499999999996" cy="244.67499999999998" r="3.765" fill="#ffedec"/><circle cx="545.805" cy="244.67499999999998" r="3.765" fill="#ffb9b5"/><circle cx="583.4449999999999" cy="244.67499999999998" r="3.765" fill="#fe382d"/><circle cx="621.085" cy="244.67499999999998" r="3.765" fill="#676cb1"/><circle cx="658.735" cy="244.67499999999998" r="3.765" fill="#2f3595"/><circle cx="696.375" cy="244.67499999999998" r="3.765" fill="#ffeceb"/><circle cx="734.015" cy="244.67499999999998" r="3.765" fill="#ffe1e0"/><circle cx="771.655" cy="244.67499999999998" r="3.765" fill="#ffef97"/><circle cx="809.295" cy="244.67499999999998" r="3.765" fill="#686db2"/><circle cx="846.935" cy="244.67499999999998" r="3.765" fill="#fffbe6"/><circle cx="884.585" cy="244.67499999999998" r="3.765" fill="#ffe553"/><circle cx="922.225" cy="244.67499999999998" r="3.765" fill="#ffe8e7"/><circle cx="959.865" cy="244.67499999999998" r="3.765" fill="#fe4b41"/><circle cx="18.825" cy="282.315" r="3.765" fill="#fe6e66"/><circle cx="56.465" cy="282.315" r="3.765" fill="#a3a6d0"/><circle cx="94.105" cy="282.315" r="3.765" fill="#e2e2f0"/><circle cx="131.745" cy="282.315" r="3.765" fill="#fff9d6"/><circle cx="169.385" cy="282.315" r="3.765" fill="#e6e6f2"/><circle cx="207.035" cy="282.315" r="3.765" fill="#fe8e88"/><circle cx="244.67499999999998" cy="282.315" r="3.765" fill="#b3b6d8"/><circle cx="282.315" cy="282.315" r="3.765" fill="#ffb0ab"/><circle cx="319.955" cy="282.315" r="3.765" fill="#d6d7ea"/><circle cx="357.59499999999997" cy="282.315" r="3.765" fill="#ffa39e"/><circle cx="395.235" cy="282.315" r="3.765" fill="#fff7c9"/><circle cx="432.885" cy="282.315" r="3.765" fill="#fe4137"/><circle cx="470.525" cy="282.315" r="3.765" fill="#ffec7d"/><circle cx="508.16499999999996" cy="282.315" r="3.765" fill="#fff6c1"/><circle cx="545.805" cy="282.315" r="3.765" fill="#fff7c7"/><circle cx="583.4449999999999" cy="282.315" r="3.765" fill="#595eaa"/><circle cx="621.085" cy="282.315" r="3.765" fill="#3a409a"/><circle cx="658.735" cy="282.315" r="3.765" fill="#fff9d9"/><circle cx="696.375" cy="282.315" r="3.765" fill="#898dc3"/><circle cx="734.015" cy="282.315" r="3.765" fill="#8185bf"/><circle cx="771.655" cy="282.315" r="3.765" fill="#fffae1"/><circle cx="809.295" cy="282.315" r="3.765" fill="#8488c0"/><circle cx="846.935" cy="282.315" r="3.765" fill="#fe655c"/><circle cx="884.585" cy="282.315" r="3.765" fill="#2b3292"/><circle cx="922.225" cy="282.315" r="3.765" fill="#fff6f5"/><circle cx="959.865" cy="282.315" r="3.765" fill="#cbcde5"/><circle cx="18.825" cy="319.955" r="3.765" fill="#fffade"/><circle cx="56.465" cy="319.955" r="3.765" fill="#dedfee"/><circle cx="94.105" cy="319.955" r="3.765" fill="#fe534a"/><circle cx="131.745" cy="319.955" r="3.765" fill="#fff3f3"/><circle cx="169.385" cy="319.955" r="3.765" fill="#fffbe5"/><circle cx="207.035" cy="319.955" r="3.765" fill="#ffb4b0"/><circle cx="244.67499999999998" cy="319.955" r="3.765" fill="#9ca0cd"/><circle cx="282.315" cy="319.955" r="3.765" fill="#acafd5"/><circle cx="319.955" cy="319.955" r="3.765" fill="#fe4940"/><circle cx="357.59499999999997" cy="319.955" r="3.765" fill="#ced0e6"/><circle cx="395.235" cy="319.955" r="3.765" fill="#fff09e"/><circle cx="432.885" cy="319.955" r="3.765" fill="#fe756e"/><circle cx="470.525" cy="319.955" r="3.765" fill="#5c62ac"/><circle cx="508.16499999999996" cy="319.955" r="3.765" fill="#ffaaa5"/><circle cx="545.805" cy="319.955" r="3.765" fill="#fe564d"/><circle cx="583.4449999999999" cy="319.955" r="3.765" fill="#fff1a0"/><circle cx="621.085" cy="319.955" r="3.765" fill="#ffec83"/><circle cx="658.735" cy="319.955" r="3.765" fill="#fffafa"/><circle cx="696.375" cy="319.955" r="3.765" fill="#ffec81"/><circle cx="734.015" cy="319.955" r="3.765" fill="#6267af"/><circle cx="771.655" cy="319.955" r="3.765" fill="#ff9e98"/><circle cx="809.295" cy="319.955" r="3.765" fill="#fe8781"/><circle cx="846.935" cy="319.955" r="3.765" fill="#fe473d"/><circle cx="884.585" cy="319.955" r="3.765" fill="#ffed84"/><circle cx="922.225" cy="319.955" r="3.765" fill="#dedfee"/><circle cx="959.865" cy="319.955" r="3.765" fill="#d1d2e7"/><circle cx="18.825" cy="357.59499999999997" r="3.765" fill="#8286bf"/><circle cx="56.465" cy="357.59499999999997" r="3.765" fill="#fe7d76"/><circle cx="94.105" cy="357.59499999999997" r="3.765" fill="#fffae0"/><circle cx="131.745" cy="357.59499999999997" r="3.765" fill="#fe6c64"/><circle cx="169.385" cy="357.59499999999997" r="3.765" fill="#ffb8b4"/><circle cx="207.035" cy="357.59499999999997" r="3.765" fill="#fffffc"/><circle cx="244.67499999999998" cy="357.59499999999997" r="3.765" fill="#fe7870"/><circle cx="282.315" cy="357.59499999999997" r="3.765" fill="#fff5bb"/><circle cx="319.955" cy="357.59499999999997" r="3.765" fill="#fff9d7"/><circle cx="357.59499999999997" cy="357.59499999999997" r="3.765" fill="#fff19f"/><circle cx="395.235" cy="357.59499999999997" r="3.765" fill="#e5e6f2"/><circle cx="432.885" cy="357.59499999999997" r="3.765" fill="#ffebea"/><circle cx="470.525" cy="357.59499999999997" r="3.765" fill="#3d439c"/><circle cx="508.16499999999996" cy="357.59499999999997" r="3.765" fill="#fffbe1"/><circle cx="545.805" cy="357.59499999999997" r="3.765" fill="#ffa09b"/><circle cx="583.4449999999999" cy="357.59499999999997" r="3.765" fill="#fff7c7"/><circle cx="621.085" cy="357.59499999999997" r="3.765" fill="#ffd6d4"/><circle cx="658.735" cy="357.59499999999997" r="3.765" fill="#f1f1f8"/><circle cx="696.375" cy="357.59499999999997" r="3.765" fill="#fff9d4"/><circle cx="734.015" cy="357.59499999999997" r="3.765" fill="#979aca"/><circle cx="771.655" cy="357.59499999999997" r="3.765" fill="#ffef97"/><circle cx="809.295" cy="357.59499999999997" r="3.765" fill="#f7f7fb"/><circle cx="846.935" cy="357.59499999999997" r="3.765" fill="#ffd2d0"/><circle cx="884.585" cy="357.59499999999997" r="3.765" fill="#ffe65b"/><circle cx="922.225" cy="357.59499999999997" r="3.765" fill="#fff7c8"/><circle cx="959.865" cy="357.59499999999997" r="3.765" fill="#fe372d"/><circle cx="18.825" cy="395.235" r="3.765" fill="#fe7972"/><circle cx="56.465" cy="395.235" r="3.765" fill="#9a9dcb"/><circle cx="94.105" cy="395.235" r="3.765" fill="#f9f9fc"/><circle cx="131.745" cy="395.235" r="3.765" fill="#fffceb"/><circle cx="169.385" cy="395.235" r="3.765" fill="#fe746d"/><circle cx="207.035" cy="395.235" r="3.765" fill="#fe4a40"/><circle cx="244.67499999999998" cy="395.235" r="3.765" fill="#fe827b"/><circle cx="282.315" cy="395.235" r="3.765" fill="#a2a5cf"/><circle cx="319.955" cy="395.235" r="3.765" fill="#ffafaa"/><circle cx="357.59499999999997" cy="395.235" r="3.765" fill="#ffaaa6"/><circle cx="395.235" cy="395.235" r="3.765" fill="#fffffd"/><circle cx="432.885" cy="395.235" r="3.765" fill="#f4f4f9"/><circle cx="470.525" cy="395.235" r="3.765" fill="#fff4b8"/><circle cx="508.16499999999996" cy="395.235" r="3.765" fill="#ffe868"/><circle cx="545.805" cy="395.235" r="3.765" fill="#aaadd4"/><circle cx="583.4449999999999" cy="395.235" r="3.765" fill="#e8e8f3"/><circle cx="621.085" cy="395.235" r="3.765" fill="#ced0e6"/><circle cx="658.735" cy="395.235" r="3.765" fill="#fff8d0"/><circle cx="696.375" cy="395.235" r="3.765" fill="#ffea73"/><circle cx="734.015" cy="395.235" r="3.765" fill="#fff6c1"/><circle cx="771.655" cy="395.235" r="3.765" fill="#fe4238"/><circle cx="809.295" cy="395.235" r="3.765" fill="#ffee90"/><circle cx="846.935" cy="395.235" r="3.765" fill="#ffea71"/><circle cx="884.585" cy="395.235" r="3.765" fill="#d4d5e9"/><circle cx="922.225" cy="395.235" r="3.765" fill="#8d91c5"/><circle cx="959.865" cy="395.235" r="3.765" fill="#ffeb7c"/><circle cx="18.825" cy="432.885" r="3.765" fill="#fff4b3"/><circle cx="56.465" cy="432.885" r="3.765" fill="#fff8ce"/><circle cx="94.105" cy="432.885" r="3.765" fill="#fe554c"/><circle cx="131.745" cy="432.885" r="3.765" fill="#ffc7c4"/><circle cx="169.385" cy="432.885" r="3.765" fill="#ffea70"/><circle cx="207.035" cy="432.885" r="3.765" fill="#ffeb78"/><circle cx="244.67499999999998" cy="432.885" r="3.765" fill="#282f91"/><circle cx="282.315" cy="432.885" r="3.765" fill="#333a97"/><circle cx="319.955" cy="432.885" r="3.765" fill="#fffefa"/><circle cx="357.59499999999997" cy="432.885" r="3.765" fill="#999ccb"/><circle cx="395.235" cy="432.885" r="3.765" fill="#ffa19c"/><circle cx="432.885" cy="432.885" r="3.765" fill="#fff1a0"/><circle cx="470.525" cy="432.885" r="3.765" fill="#6469b0"/><circle cx="508.16499999999996" cy="432.885" r="3.765" fill="#fffada"/><circle cx="545.805" cy="432.885" r="3.765" fill="#fff3ac"/><circle cx="583.4449999999999" cy="432.885" r="3.765" fill="#fffffc"/><circle cx="621.085" cy="432.885" r="3.765" fill="#8487c0"/><circle cx="658.735" cy="432.885" r="3.765" fill="#6267af"/><circle cx="696.375" cy="432.885" r="3.765" fill="#fe6057"/><circle cx="734.015" cy="432.885" r="3.765" fill="#c9cbe3"/><circle cx="771.655" cy="432.885" r="3.765" fill="#ffee90"/><circle cx="809.295" cy="432.885" r="3.765" fill="#fe9690"/><circle cx="846.935" cy="432.885" r="3.765" fill="#fffbe6"/><circle cx="884.585" cy="432.885" r="3.765" fill="#fff7c9"/><circle cx="922.225" cy="432.885" r="3.765" fill="#fffadc"/><circle cx="959.865" cy="432.885" r="3.765" fill="#39409a"/><circle cx="18.825" cy="470.525" r="3.765" fill="#ffe96f"/><circle cx="56.465" cy="470.525" r="3.765" fill="#fe342a"/><circle cx="94.105" cy="470.525" r="3.765" fill="#fff3b0"/><circle cx="131.745" cy="470.525" r="3.765" fill="#fff3b1"/><circle cx="169.385" cy="470.525" r="3.765" fill="#d3d4e8"/><circle cx="207.035" cy="470.525" r="3.765" fill="#fff8ce"/><circle cx="244.67499999999998" cy="470.525" r="3.765" fill="#9c9fcc"/><circle cx="282.315" cy="470.525" r="3.765" fill="#fff4b5"/><circle cx="319.955" cy="470.525" r="3.765" fill="#ffa7a2"/><circle cx="357.59499999999997" cy="470.525" r="3.765" fill="#fff2a5"/><circle cx="395.235" cy="470.525" r="3.765" fill="#fff5bf"/><circle cx="432.885" cy="470.525" r="3.765" fill="#fff6c6"/><circle cx="470.525" cy="470.525" r="3.765" fill="#ff9892"/><circle cx="508.16499999999996" cy="470.525" r="3.765" fill="#ffea72"/><circle cx="545.805" cy="470.525" r="3.765" fill="#f3f3f9"/><circle cx="583.4449999999999" cy="470.525" r="3.765" fill="#fe8e88"/><circle cx="621.085" cy="470.525" r="3.765" fill="#ffe1df"/><circle cx="658.735" cy="470.525" r="3.765" fill="#fffae1"/><circle cx="696.375" cy="470.525" r="3.765" fill="#9598c9"/><circle cx="734.015" cy="470.525" r="3.765" fill="#fe443a"/><circle cx="771.655" cy="470.525" r="3.765" fill="#fff8ce"/><circle cx="809.295" cy="470.525" r="3.765" fill="#fff4b6"/><circle cx="846.935" cy="470.525" r="3.765" fill="#ffebea"/><circle cx="884.585" cy="470.525" r="3.765" fill="#ffbfbc"/><circle cx="922.225" cy="470.525" r="3.765" fill="#e4e5f1"/><circle cx="959.865" cy="470.525" r="3.765" fill="#ffef97"/><circle cx="18.825" cy="508.16499999999996" r="3.765" fill="#f4f4f9"/><circle cx="56.465" cy="508.16499999999996" r="3.765" fill="#fffdef"/><circle cx="94.105" cy="508.16499999999996" r="3.765" fill="#a5a8d1"/><circle cx="131.745" cy="508.16499999999996" r="3.765" fill="#999dcb"/><circle cx="169.385" cy="508.16499999999996" r="3.765" fill="#ffe866"/><circle cx="207.035" cy="508.16499999999996" r="3.765" fill="#fff7c7"/><circle cx="244.67499999999998" cy="508.16499999999996" r="3.765" fill="#aeb0d5"/><circle cx="282.315" cy="508.16499999999996" r="3.765" fill="#fff9d7"/><circle cx="319.955" cy="508.16499999999996" r="3.765" fill="#fffcea"/><circle cx="357.59499999999997" cy="508.16499999999996" r="3.765" fill="#3c439c"/><circle cx="395.235" cy="508.16499999999996" r="3.765" fill="#f3f4f9"/><circle cx="432.885" cy="508.16499999999996" r="3.765" fill="#fffbe3"/><circle cx="470.525" cy="508.16499999999996" r="3.765" fill="#e7e8f3"/><circle cx="508.16499999999996" cy="508.16499999999996" r="3.765" fill="#fff2aa"/><circle cx="545.805" cy="508.16499999999996" r="3.765" fill="#fffced"/><circle cx="583.4449999999999" cy="508.16499999999996" r="3.765" fill="#fe3a2f"/><circle cx="621.085" cy="508.16499999999996" r="3.765" fill="#4e53a4"/><circle cx="658.735" cy="508.16499999999996" r="3.765" fill="#ffe867"/><circle cx="696.375" cy="508.16499999999996" r="3.765" fill="#ffe75f"/><circle cx="734.015" cy="508.16499999999996" r="3.765" fill="#fffade"/><circle cx="771.655" cy="508.16499999999996" r="3.765" fill="#d3d4e8"/><circle cx="809.295" cy="508.16499999999996" r="3.765" fill="#e9eaf4"/><circle cx="846.935" cy="508.16499999999996" r="3.765" fill="#fff7c7"/><circle cx="884.585" cy="508.16499999999996" r="3.765" fill="#ffed85"/><circle cx="922.225" cy="508.16499999999996" r="3.765" fill="#ffafaa"/><circle cx="959.865" cy="508.16499999999996" r="3.765" fill="#ffc8c5"/><circle cx="18.825" cy="545.805" r="3.765" fill="#ffeeee"/><circle cx="56.465" cy="545.805" r="3.765" fill="#6065ae"/><circle cx="94.105" cy="545.805" r="3.765" fill="#ffafab"/><circle cx="131.745" cy="545.805" r="3.765" fill="#c0c2df"/><circle cx="169.385" cy="545.805" r="3.765" fill="#787dba"/><circle cx="207.035" cy="545.805" r="3.765" fill="#ffeb7d"/><circle cx="244.67499999999998" cy="545.805" r="3.765" fill="#ffb0ac"/><circle cx="282.315" cy="545.805" r="3.765" fill="#fe726b"/><circle cx="319.955" cy="545.805" r="3.765" fill="#353c98"/><circle cx="357.59499999999997" cy="545.805" r="3.765" fill="#a4a6d0"/><circle cx="395.235" cy="545.805" r="3.765" fill="#ffdad8"/><circle cx="432.885" cy="545.805" r="3.765" fill="#fffffe"/><circle cx="470.525" cy="545.805" r="3.765" fill="#fffdf3"/><circle cx="508.16499999999996" cy="545.805" r="3.765" fill="#fe4d44"/><circle cx="545.805" cy="545.805" r="3.765" fill="#e0e1ef"/><circle cx="583.4449999999999" cy="545.805" r="3.765" fill="#d9daec"/><circle cx="621.085" cy="545.805" r="3.765" fill="#ffcac8"/><circle cx="658.735" cy="545.805" r="3.765" fill="#fffade"/><circle cx="696.375" cy="545.805" r="3.765" fill="#ffe96f"/><circle cx="734.015" cy="545.805" r="3.765" fill="#fffadd"/><circle cx="771.655" cy="545.805" r="3.765" fill="#8084be"/><circle cx="809.295" cy="545.805" r="3.765" fill="#ffed88"/><circle cx="846.935" cy="545.805" r="3.765" fill="#fe746c"/><circle cx="884.585" cy="545.805" r="3.765" fill="#ffe5e4"/><circle cx="922.225" cy="545.805" r="3.765" fill="#fff5f5"/><circle cx="959.865" cy="545.805" r="3.765" fill="#ffeb7c"/><circle cx="18.825" cy="583.4449999999999" r="3.765" fill="#fffdf3"/><circle cx="56.465" cy="583.4449999999999" r="3.765" fill="#fff2ac"/><circle cx="94.105" cy="583.4449999999999" r="3.765" fill="#ffe65c"/><circle cx="131.745" cy="583.4449999999999" r="3.765" fill="#e9eaf4"/><circle cx="169.385" cy="583.4449999999999" r="3.765" fill="#ffd2d0"/><circle cx="207.035" cy="583.4449999999999" r="3.765" fill="#fe8982"/><circle cx="244.67499999999998" cy="583.4449999999999" r="3.765" fill="#ececf5"/><circle cx="282.315" cy="583.4449999999999" r="3.765" fill="#fe4b42"/><circle cx="319.955" cy="583.4449999999999" r="3.765" fill="#fe3f34"/><circle cx="357.59499999999997" cy="583.4449999999999" r="3.765" fill="#c4c6e1"/><circle cx="395.235" cy="583.4449999999999" r="3.765" fill="#ffb2ae"/><circle cx="432.885" cy="583.4449999999999" r="3.765" fill="#ffe75d"/><circle cx="470.525" cy="583.4449999999999" r="3.765" fill="#fe8c86"/><circle cx="508.16499999999996" cy="583.4449999999999" r="3.765" fill="#fe5c54"/><circle cx="545.805" cy="583.4449999999999" r="3.765" fill="#ffe760"/><circle cx="583.4449999999999" cy="583.4449999999999" r="3.765" fill="#fe564d"/><circle cx="621.085" cy="583.4449999999999" r="3.765" fill="#4e53a4"/><circle cx="658.735" cy="583.4449999999999" r="3.765" fill="#a0a3cf"/><circle cx="696.375" cy="583.4449999999999" r="3.765" fill="#ffd5d3"/><circle cx="734.015" cy="583.4449999999999" r="3.765" fill="#fff3ae"/><circle cx="771.655" cy="583.4449999999999" r="3.765" fill="#fff7cd"/><circle cx="809.295" cy="583.4449999999999" r="3.765" fill="#43499f"/><circle cx="846.935" cy="583.4449999999999" r="3.765" fill="#9ea1cd"/><circle cx="884.585" cy="583.4449999999999" r="3.765" fill="#fff4b8"/><circle cx="922.225" cy="583.4449999999999" r="3.765" fill="#ffec7d"/><circle cx="959.865" cy="583.4449999999999" r="3.765" fill="#fe574e"/><circle cx="18.825" cy="621.085" r="3.765" fill="#5156a6"/><circle cx="56.465" cy="621.085" r="3.765" fill="#fffceb"/><circle cx="94.105" cy="621.085" r="3.765" fill="#666bb1"/><circle cx="131.745" cy="621.085" r="3.765" fill="#ffe75e"/><circle cx="169.385" cy="621.085" r="3.765" fill="#6f74b6"/><circle cx="207.035" cy="621.085" r="3.765" fill="#ffb3af"/><circle cx="244.67499999999998" cy="621.085" r="3.765" fill="#ffd5d2"/><circle cx="282.315" cy="621.085" r="3.765" fill="#c1c3df"/><circle cx="319.955" cy="621.085" r="3.765" fill="#a5a7d1"/><circle cx="357.59499999999997" cy="621.085" r="3.765" fill="#ffa9a4"/><circle cx="395.235" cy="621.085" r="3.765" fill="#282f91"/><circle cx="432.885" cy="621.085" r="3.765" fill="#8e91c5"/><circle cx="470.525" cy="621.085" r="3.765" fill="#fffffc"/><circle cx="508.16499999999996" cy="621.085" r="3.765" fill="#a2a5d0"/><circle cx="545.805" cy="621.085" r="3.765" fill="#ecedf5"/><circle cx="583.4449999999999" cy="621.085" r="3.765" fill="#fe948e"/><circle cx="621.085" cy="621.085" r="3.765" fill="#ffe869"/><circle cx="658.735" cy="621.085" r="3.765" fill="#ffef93"/><circle cx="696.375" cy="621.085" r="3.765" fill="#6c71b4"/><circle cx="734.015" cy="621.085" r="3.765" fill="#fe7b74"/><circle cx="771.655" cy="621.085" r="3.765" fill="#ffeeed"/><circle cx="809.295" cy="621.085" r="3.765" fill="#fe5147"/><circle cx="846.935" cy="621.085" r="3.765" fill="#ffec82"/><circle cx="884.585" cy="621.085" r="3.765" fill="#fffefe"/><circle cx="922.225" cy="621.085" r="3.765" fill="#ffea73"/><circle cx="959.865" cy="621.085" r="3.765" fill="#fff6f5"/><circle cx="18.825" cy="658.735" r="3.765" fill="#fe766f"/><circle cx="56.465" cy="658.735" r="3.765" fill="#656ab0"/><circle cx="94.105" cy="658.735" r="3.765" fill="#ffa8a3"/><circle cx="131.745" cy="658.735" r="3.765" fill="#ffd8d6"/><circle cx="169.385" cy="658.735" r="3.765" fill="#fcfdfe"/><circle cx="207.035" cy="658.735" r="3.765" fill="#fffdf0"/><circle cx="244.67499999999998" cy="658.735" r="3.765" fill="#d3d4e8"/><circle cx="282.315" cy="658.735" r="3.765" fill="#fffffc"/><circle cx="319.955" cy="658.735" r="3.765" fill="#cccee5"/><circle cx="357.59499999999997" cy="658.735" r="3.765" fill="#fffafa"/><circle cx="395.235" cy="658.735" r="3.765" fill="#ffef93"/><circle cx="432.885" cy="658.735" r="3.765" fill="#fff9d9"/><circle cx="470.525" cy="658.735" r="3.765" fill="#ececf5"/><circle cx="508.16499999999996" cy="658.735" r="3.765" fill="#313796"/><circle cx="545.805" cy="658.735" r="3.765" fill="#fff9d8"/><circle cx="583.4449999999999" cy="658.735" r="3.765" fill="#fffef7"/><circle cx="621.085" cy="658.735" r="3.765" fill="#ffee91"/><circle cx="658.735" cy="658.735" r="3.765" fill="#fff4b4"/><circle cx="696.375" cy="658.735" r="3.765" fill="#fe564d"/><circle cx="734.015" cy="658.735" r="3.765" fill="#fff3b2"/><circle cx="771.655" cy="658.735" r="3.765" fill="#6166ae"/><circle cx="809.295" cy="658.735" r="3.765" fill="#898dc3"/><circle cx="846.935" cy="658.735" r="3.765" fill="#a3a6d0"/><circle cx="884.585" cy="658.735" r="3.765" fill="#fffae0"/><circle cx="922.225" cy="658.735" r="3.765" fill="#ffed85"/><circle cx="959.865" cy="658.735" r="3.765" fill="#b0b3d7"/><circle cx="18.825" cy="696.375" r="3.765" fill="#d6d7ea"/><circle cx="56.465" cy="696.375" r="3.765" fill="#ffc3c0"/><circle cx="94.105" cy="696.375" r="3.765" fill="#fe574f"/><circle cx="131.745" cy="696.375" r="3.765" fill="#ffefee"/><circle cx="169.385" cy="696.375" r="3.765" fill="#fffcfb"/><circle cx="207.035" cy="696.375" r="3.765" fill="#ffe761"/><circle cx="244.67499999999998" cy="696.375" r="3.765" fill="#fff1a5"/><circle cx="282.315" cy="696.375" r="3.765" fill="#ffc1be"/><circle cx="319.955" cy="696.375" r="3.765" fill="#ffb9b6"/><circle cx="357.59499999999997" cy="696.375" r="3.765" fill="#eeeef6"/><circle cx="395.235" cy="696.375" r="3.765" fill="#abaed4"/><circle cx="432.885" cy="696.375" r="3.765" fill="#aeb1d6"/><circle cx="470.525" cy="696.375" r="3.765" fill="#7377b7"/><circle cx="508.16499999999996" cy="696.375" r="3.765" fill="#fff0ef"/><circle cx="545.805" cy="696.375" r="3.765" fill="#a8abd2"/><circle cx="583.4449999999999" cy="696.375" r="3.765" fill="#dddeed"/><circle cx="621.085" cy="696.375" r="3.765" fill="#fff19f"/><circle cx="658.735" cy="696.375" r="3.765" fill="#fffef9"/><circle cx="696.375" cy="696.375" r="3.765" fill="#e1e2f0"/><circle cx="734.015" cy="696.375" r="3.765" fill="#ffed89"/><circle cx="771.655" cy="696.375" r="3.765" fill="#ffc0bd"/><circle cx="809.295" cy="696.375" r="3.765" fill="#fff09e"/><circle cx="846.935" cy="696.375" r="3.765" fill="#fe4035"/><circle cx="884.585" cy="696.375" r="3.765" fill="#fe827c"/><circle cx="922.225" cy="696.375" r="3.765" fill="#ecedf6"/><circle cx="959.865" cy="696.375" r="3.765" fill="#fff2a8"/><circle cx="18.825" cy="734.015" r="3.765" fill="#fff6c3"/><circle cx="56.465" cy="734.015" r="3.765" fill="#fe3b31"/><circle cx="94.105" cy="734.015" r="3.765" fill="#fff4b6"/><circle cx="131.745" cy="734.015" r="3.765" fill="#ffed88"/><circle cx="169.385" cy="734.015" r="3.765" fill="#ffdfdd"/><circle cx="207.035" cy="734.015" r="3.765" fill="#ffd7d5"/><circle cx="244.67499999999998" cy="734.015" r="3.765" fill="#8589c1"/><circle cx="282.315" cy="734.015" r="3.765" fill="#6f74b6"/><circle cx="319.955" cy="734.015" r="3.765" fill="#d1d3e8"/><circle cx="357.59499999999997" cy="734.015" r="3.765" fill="#fff2a6"/><circle cx="395.235" cy="734.015" r="3.765" fill="#fff09a"/><circle cx="432.885" cy="734.015" r="3.765" fill="#fff4b5"/><circle cx="470.525" cy="734.015" r="3.765" fill="#fff5bf"/><circle cx="508.16499999999996" cy="734.015" r="3.765" fill="#fe5148"/><circle cx="545.805" cy="734.015" r="3.765" fill="#ffc6c3"/><circle cx="583.4449999999999" cy="734.015" r="3.765" fill="#ffd9d7"/><circle cx="621.085" cy="734.015" r="3.765" fill="#ff9d97"/><circle cx="658.735" cy="734.015" r="3.765" fill="#fffdf1"/><circle cx="696.375" cy="734.015" r="3.765" fill="#cccee5"/><circle cx="734.015" cy="734.015" r="3.765" fill="#fffbfb"/><circle cx="771.655" cy="734.015" r="3.765" fill="#fe5a51"/><circle cx="809.295" cy="734.015" r="3.765" fill="#ffc3bf"/><circle cx="846.935" cy="734.015" r="3.765" fill="#fff8f8"/><circle cx="884.585" cy="734.015" r="3.765" fill="#ffeeed"/><circle cx="922.225" cy="734.015" r="3.765" fill="#ffd4d1"/><circle cx="959.865" cy="734.015" r="3.765" fill="#fe8e88"/><circle cx="18.825" cy="771.655" r="3.765" fill="#fe3126"/><circle cx="56.465" cy="771.655" r="3.765" fill="#6f74b5"/><circle cx="94.105" cy="771.655" r="3.765" fill="#fff9d5"/><circle cx="131.745" cy="771.655" r="3.765" fill="#b0b3d7"/><circle cx="169.385" cy="771.655" r="3.765" fill="#d2d4e8"/><circle cx="207.035" cy="771.655" r="3.765" fill="#c4c6e1"/><circle cx="244.67499999999998" cy="771.655" r="3.765" fill="#fff2ab"/><circle cx="282.315" cy="771.655" r="3.765" fill="#fff4f3"/><circle cx="319.955" cy="771.655" r="3.765" fill="#fffce9"/><circle cx="357.59499999999997" cy="771.655" r="3.765" fill="#fff098"/><circle cx="395.235" cy="771.655" r="3.765" fill="#363d98"/><circle cx="432.885" cy="771.655" r="3.765" fill="#c2c4e0"/><circle cx="470.525" cy="771.655" r="3.765" fill="#fff1a4"/><circle cx="508.16499999999996" cy="771.655" r="3.765" fill="#fffbe3"/><circle cx="545.805" cy="771.655" r="3.765" fill="#ffe554"/><circle cx="583.4449999999999" cy="771.655" r="3.765" fill="#ffaaa6"/><circle cx="621.085" cy="771.655" r="3.765" fill="#ffeb7c"/><circle cx="658.735" cy="771.655" r="3.765" fill="#ffe96e"/><circle cx="696.375" cy="771.655" r="3.765" fill="#8186bf"/><circle cx="734.015" cy="771.655" r="3.765" fill="#aaadd3"/><circle cx="771.655" cy="771.655" r="3.765" fill="#ffe96b"/><circle cx="809.295" cy="771.655" r="3.765" fill="#fffef7"/><circle cx="846.935" cy="771.655" r="3.765" fill="#f0f1f7"/><circle cx="884.585" cy="771.655" r="3.765" fill="#fffae0"/><circle cx="922.225" cy="771.655" r="3.765" fill="#ffe657"/><circle cx="959.865" cy="771.655" r="3.765" fill="#e7e8f3"/><circle cx="18.825" cy="809.295" r="3.765" fill="#dcdded"/><circle cx="56.465" cy="809.295" r="3.765" fill="#3c429b"/><circle cx="94.105" cy="809.295" r="3.765" fill="#ffa5a0"/><circle cx="131.745" cy="809.295" r="3.765" fill="#e9eaf4"/><circle cx="169.385" cy="809.295" r="3.765" fill="#ffcac7"/><circle cx="207.035" cy="809.295" r="3.765" fill="#fe7d76"/><circle cx="244.67499999999998" cy="809.295" r="3.765" fill="#fe564d"/><circle cx="282.315" cy="809.295" r="3.765" fill="#c9cae3"/><circle cx="319.955" cy="809.295" r="3.765" fill="#fff19f"/><circle cx="357.59499999999997" cy="809.295" r="3.765" fill="#fffffd"/><circle cx="395.235" cy="809.295" r="3.765" fill="#ffcdca"/><circle cx="432.885" cy="809.295" r="3.765" fill="#fff2ab"/><circle cx="470.525" cy="809.295" r="3.765" fill="#888cc2"/><circle cx="508.16499999999996" cy="809.295" r="3.765" fill="#fff3b2"/><circle cx="545.805" cy="809.295" r="3.765" fill="#dadbec"/><circle cx="583.4449999999999" cy="809.295" r="3.765" fill="#2e3594"/><circle cx="621.085" cy="809.295" r="3.765" fill="#a6a9d1"/><circle cx="658.735" cy="809.295" r="3.765" fill="#ced0e6"/><circle cx="696.375" cy="809.295" r="3.765" fill="#fff6c1"/><circle cx="734.015" cy="809.295" r="3.765" fill="#fe6a62"/><circle cx="771.655" cy="809.295" r="3.765" fill="#fe463c"/><circle cx="809.295" cy="809.295" r="3.765" fill="#dddeee"/><circle cx="846.935" cy="809.295" r="3.765" fill="#fffef7"/><circle cx="884.585" cy="809.295" r="3.765" fill="#b9bbdb"/><circle cx="922.225" cy="809.295" r="3.765" fill="#fffbe3"/><circle cx="959.865" cy="809.295" r="3.765" fill="#ffef93"/><circle cx="18.825" cy="846.935" r="3.765" fill="#ffd2d0"/><circle cx="56.465" cy="846.935" r="3.765" fill="#fff4b3"/><circle cx="94.105" cy="846.935" r="3.765" fill="#fff6c6"/><circle cx="131.745" cy="846.935" r="3.765" fill="#fff8ce"/><circle cx="169.385" cy="846.935" r="3.765" fill="#8488c0"/><circle cx="207.035" cy="846.935" r="3.765" fill="#fff2a7"/><circle cx="244.67499999999998" cy="846.935" r="3.765" fill="#fffadd"/><circle cx="282.315" cy="846.935" r="3.765" fill="#262d90"/><circle cx="319.955" cy="846.935" r="3.765" fill="#6267af"/><circle cx="357.59499999999997" cy="846.935" r="3.765" fill="#ffee8c"/><circle cx="395.235" cy="846.935" r="3.765" fill="#fffadc"/><circle cx="432.885" cy="846.935" r="3.765" fill="#fe746c"/><circle cx="470.525" cy="846.935" r="3.765" fill="#acafd4"/><circle cx="508.16499999999996" cy="846.935" r="3.765" fill="#fe3328"/><circle cx="545.805" cy="846.935" r="3.765" fill="#ffee90"/><circle cx="583.4449999999999" cy="846.935" r="3.765" fill="#ffe866"/><circle cx="621.085" cy="846.935" r="3.765" fill="#ffec81"/><circle cx="658.735" cy="846.935" r="3.765" fill="#fff3ae"/><circle cx="696.375" cy="846.935" r="3.765" fill="#b0b2d6"/><circle cx="734.015" cy="846.935" r="3.765" fill="#272e91"/><circle cx="771.655" cy="846.935" r="3.765" fill="#fff9d5"/><circle cx="809.295" cy="846.935" r="3.765" fill="#fff4b6"/><circle cx="846.935" cy="846.935" r="3.765" fill="#c7c9e2"/><circle cx="884.585" cy="846.935" r="3.765" fill="#ffec7f"/><circle cx="922.225" cy="846.935" r="3.765" fill="#ffe65a"/><circle cx="959.865" cy="846.935" r="3.765" fill="#fff3af"/><circle cx="18.825" cy="884.585" r="3.765" fill="#fe4137"/><circle cx="56.465" cy="884.585" r="3.765" fill="#2b3293"/><circle cx="94.105" cy="884.585" r="3.765" fill="#fff1a4"/><circle cx="131.745" cy="884.585" r="3.765" fill="#293091"/><circle cx="169.385" cy="884.585" r="3.765" fill="#ff9994"/><circle cx="207.035" cy="884.585" r="3.765" fill="#fffdf5"/><circle cx="244.67499999999998" cy="884.585" r="3.765" fill="#fe6e66"/><circle cx="282.315" cy="884.585" r="3.765" fill="#272e91"/><circle cx="319.955" cy="884.585" r="3.765" fill="#fff8cd"/><circle cx="357.59499999999997" cy="884.585" r="3.765" fill="#ffe65b"/><circle cx="395.235" cy="884.585" r="3.765" fill="#ffdad8"/><circle cx="432.885" cy="884.585" r="3.765" fill="#fe7871"/><circle cx="470.525" cy="884.585" r="3.765" fill="#969aca"/><circle cx="508.16499999999996" cy="884.585" r="3.765" fill="#7277b7"/><circle cx="545.805" cy="884.585" r="3.765" fill="#4f55a5"/><circle cx="583.4449999999999" cy="884.585" r="3.765" fill="#ffef93"/><circle cx="621.085" cy="884.585" r="3.765" fill="#fff7f6"/><circle cx="658.735" cy="884.585" r="3.765" fill="#4f55a5"/><circle cx="696.375" cy="884.585" r="3.765" fill="#fffdf1"/><circle cx="734.015" cy="884.585" r="3.765" fill="#fff5be"/><circle cx="771.655" cy="884.585" r="3.765" fill="#3b419b"/><circle cx="809.295" cy="884.585" r="3.765" fill="#cfd1e7"/><circle cx="846.935" cy="884.585" r="3.765" fill="#fff098"/><circle cx="884.585" cy="884.585" r="3.765" fill="#fffadd"/><circle cx="922.225" cy="884.585" r="3.765" fill="#fff9d5"/><circle cx="959.865" cy="884.585" r="3.765" fill="#fff9d9"/></g></svg>