<?xml version="1.0" standalone="no"?>
<svg xmlns:xlink="http://www.w3.org/1999/xlink" xmlns="http://www.w3.org/2000/svg" viewBox="0 0 1000 1000" preserveAspectRatio="xMaxYMax slice">
    <g transform="scale(1.1069293779056897)" opacity="0.3">
        <rect x="0" y="0" width="903.4000000000001" height="903.4000000000001" fill="#111111" />
        <circle cx="75.28" cy="75.28" r="37.64" fill="#1da72e" />
        <circle cx="225.85000000000002" cy="75.28" r="37.64" fill="#f1a9a9" />
        <circle cx="376.41999999999996" cy="75.28" r="37.64" fill="#3985b7" />
        <circle cx="526.98" cy="75.28" r="37.64" fill="#f7cece" />
        <circle cx="677.55" cy="75.28" r="37.64" fill="#9ec3dc" />
        <circle cx="828.12" cy="75.28" r="37.64" fill="#ec8b8b" />
        <circle cx="75.28" cy="225.85000000000002" r="37.64" fill="#2478b0" />
        <circle cx="225.85000000000002" cy="225.85000000000002" r="37.64" fill="#d91414" />
        <circle cx="376.41999999999996" cy="225.85000000000002" r="37.64" fill="#9bc1db" />
        <circle cx="526.98" cy="225.85000000000002" r="37.64" fill="#dc2424" />
        <circle cx="677.55" cy="225.85000000000002" r="37.64" fill="#b2e1b8" />
        <circle cx="828.12" cy="225.85000000000002" r="37.64" fill="#e66767" />
        <circle cx="75.28" cy="376.41999999999996" r="37.64" fill="#eb8585" />
        <circle cx="225.85000000000002" cy="376.41999999999996" r="37.64" fill="#3884b7" />
        <circle cx="376.41999999999996" cy="376.41999999999996" r="37.64" fill="#fcebeb" />
        <circle cx="526.98" cy="376.41999999999996" r="37.64" fill="#91d49a" />
        <circle cx="677.55" cy="376.41999999999996" r="37.64" fill="#e6f0f6" />
        <circle cx="828.12" cy="376.41999999999996" r="37.64" fill="#fbfdfe" />
        <circle cx="75.28" cy="526.98" r="37.64" fill="#f1a9a9" />
        <circle cx="225.85000000000002" cy="526.98" r="37.64" fill="#fefcfc" />
        <circle cx="376.41999999999996" cy="526.98" r="37.64" fill="#ea7b7b" />
        <circle cx="526.98" cy="526.98" r="37.64" fill="#9cd8a4" />
        <circle cx="677.55" cy="526.98" r="37.64" fill="#74c97f" />
        <circle cx="828.12" cy="526.98" r="37.64" fill="#def2e0" />
        <circle cx="75.28" cy="677.55" r="37.64" fill="#fcfdfe" />
        <circle cx="225.85000000000002" cy="677.55" r="37.64" fill="#7fb0d1" />
        <circle cx="376.41999999999996" cy="677.55" r="37.64" fill="#f8fcf9" />
        <circle cx="526.98" cy="677.55" r="37.64" fill="#f7cccc" />
        <circle cx="677.55" cy="677.55" r="37.64" fill="#f1a9a9" />
        <circle cx="828.12" cy="677.55" r="37.64" fill="#498fbd" />
        <circle cx="75.28" cy="828.12" r="37.64" fill="#54bc61" />
        <circle cx="225.85000000000002" cy="828.12" r="37.64" fill="#dc2727" />
        <circle cx="376.41999999999996" cy="828.12" r="37.64" fill="#3884b7" />
        <circle cx="526.98" cy="828.12" r="37.64" fill="#e24d4d" />
        <circle cx="677.55" cy="828.12" r="37.64" fill="#f5fbf6" />
        <circle cx="828.12" cy="828.12" r="37.64" fill="#ee9797" />
    </g>
</svg>